<mxfile host="Electron" modified="2023-10-18T10:06:44.696Z" agent="Mozilla/5.0 (Windows NT 10.0; Win64; x64) AppleWebKit/537.36 (KHTML, like Gecko) draw.io/22.0.2 Chrome/114.0.5735.289 Electron/25.8.4 Safari/537.36" etag="gR-kKpwRXrNKeg5MMolZ" version="22.0.2" type="device">
  <diagram name="Pagina-1" id="4Uav4Xv94muxuRFDnG2d">
    <mxGraphModel dx="1118" dy="708" grid="1" gridSize="10" guides="1" tooltips="1" connect="1" arrows="1" fold="1" page="1" pageScale="1" pageWidth="827" pageHeight="1169" math="0" shadow="0">
      <root>
        <mxCell id="0" />
        <mxCell id="1" parent="0" />
      </root>
    </mxGraphModel>
  </diagram>
</mxfile>
